<svg preserveAspectRatio="none" overflow="visible" style="display: block;" width="16" height="16" viewBox="0 0 16 16" fill="none" xmlns="http://www.w3.org/2000/svg">
<g id="wrench" clip-path="url(#clip0_0_5)">
<path id="Vector" d="M9.60921 4.66699C9.60921 4.49249 9.67763 4.32495 9.79978 4.20033L11.8711 2.13033C12.0851 1.91566 12.0171 1.55433 11.7251 1.47433C10.9925 1.27291 10.2177 1.28429 9.49138 1.50715C8.76503 1.73 8.11718 2.15511 7.62362 2.73274C7.13006 3.31036 6.81122 4.0166 6.7044 4.76883C6.59758 5.52105 6.70721 6.28814 7.02044 6.98033L1.74711 12.2537C1.48189 12.5188 1.33286 12.8784 1.3328 13.2534C1.33274 13.6284 1.48165 13.9881 1.74678 14.2533C2.01191 14.5185 2.37153 14.6676 2.74654 14.6676C3.12155 14.6677 3.48123 14.5188 3.74644 14.2537L9.01978 8.98033C9.71197 9.29357 10.4791 9.40319 11.2313 9.29637C11.9835 9.18955 12.6897 8.87071 13.2674 8.37715C13.845 7.8836 14.2701 7.23574 14.493 6.50939C14.7158 5.78304 14.7272 5.00824 14.5258 4.27566C14.4458 3.98366 14.0838 3.91566 13.8704 4.13033L11.7998 6.20033C11.6752 6.32248 11.5076 6.3909 11.3331 6.3909C11.1586 6.3909 10.9911 6.32248 10.8664 6.20033L9.79978 5.13366C9.67763 5.00904 9.60921 4.8415 9.60921 4.66699Z" stroke="black" stroke-width="2" stroke-linecap="round"/>
</g>
<defs>
<clipPath id="clip0_0_5">
<rect width="16" height="16" fill="white"/>
</clipPath>
</defs>
</svg>
